<svg xmlns="http://www.w3.org/2000/svg" width="26" height="26.25" viewBox="0 0 26 26.25">
  <g id="Group_16283" data-name="Group 16283" transform="translate(-882 -335.75)">
    <g id="Layer_1_129_" transform="translate(882.357 336)">
      <g id="Group_4737" data-name="Group 4737" transform="translate(0)">
        <g id="Group_4732" data-name="Group 4732">
          <path id="Path_16055" data-name="Path 16055" d="M11.375,8.751a7.83,7.83,0,0,1,1.393-3.788,6.321,6.321,0,1,0-7.49,7.54A9.478,9.478,0,0,1,11.375,8.751ZM4.066,7.827a.4.4,0,0,1,.407-.408h1.3v-.3l-.178-.3H4.473a.408.408,0,0,1,0-.815h.638L3.731,3.73A.915.915,0,0,1,3.585,3.3a.811.811,0,0,1,.9-.763.8.8,0,0,1,.711.491L6.6,5.7,8,3.029a.8.8,0,0,1,.71-.491.812.812,0,0,1,.9.763.916.916,0,0,1-.145.428L8.079,6h.637a.408.408,0,0,1,0,.815H7.6l-.178.3v.3h1.3a.408.408,0,0,1,0,.815H7.42V9.269a.772.772,0,0,1-.825.836.771.771,0,0,1-.825-.836V8.235h-1.3A.4.4,0,0,1,4.066,7.827Z" transform="translate(-0.274)" fill="none" stroke="#1d1d1d" stroke-width="0.5"/>
        </g>
        <g id="Group_4733" data-name="Group 4733" transform="translate(12.711 3.161)">
          <path id="Path_16056" data-name="Path 16056" d="M16.307,2.431a6.328,6.328,0,0,0-6.256,5.457,9.426,9.426,0,0,1,3.416.668.441.441,0,0,1,.441-.263h.219a1.947,1.947,0,0,1-.313-1.119A2.376,2.376,0,0,1,16.437,4.97c1.831,0,2.718.982,2.718,1.8a.706.706,0,0,1-.784.732c-.919,0-.356-1.275-1.766-1.275a1.094,1.094,0,0,0-1.2,1.045,2.293,2.293,0,0,0,.345,1.025h1.14c.428,0,.648.157.648.5s-.22.5-.648.5h-.826a.663.663,0,0,1,.054.251,1.348,1.348,0,0,1-.107.5,9.53,9.53,0,0,1,.956.922,4.128,4.128,0,0,0,.855.126c.176,0,.607-.115.773-.115a.6.6,0,0,1,.606.668c0,.59-.528.846-1.072.881a9.564,9.564,0,0,1,.883,1.931,6.316,6.316,0,0,0-2.7-12.029Z" transform="translate(-10.051 -2.431)" fill="none" stroke="#1d1d1d" stroke-width="0.5"/>
        </g>
        <g id="Group_4734" data-name="Group 4734" transform="translate(13.063 18.851)">
          <path id="Path_16057" data-name="Path 16057" d="M10.322,14.5v2.587c.783-.052,1.607-.418,1.607-1.28C11.929,14.918,11.026,14.657,10.322,14.5Z" transform="translate(-10.322 -14.5)" fill="#404040"/>
        </g>
        <g id="Group_4735" data-name="Group 4735" transform="translate(10.815 14.644)">
          <path id="Path_16058" data-name="Path 16058" d="M8.593,12.375c0,.654.484,1.032,1.463,1.229V11.264C9.166,11.291,8.593,11.813,8.593,12.375Z" transform="translate(-8.593 -11.264)" fill="#404040"/>
        </g>
        <g id="Group_4736" data-name="Group 4736" transform="translate(4.741 10.195)">
          <path id="Path_16059" data-name="Path 16059" d="M11.824,7.842a7.9,7.9,0,1,0,7.9,7.9A7.913,7.913,0,0,0,11.824,7.842Zm.419,12.576v.81a.4.4,0,1,1-.785,0v-.81c-2.207-.052-3.306-1.372-3.306-2.405a.752.752,0,0,1,.81-.822c1.463,0,.326,1.8,2.5,1.895V16.354C9.523,16,8.349,15.153,8.349,13.7c0-1.776,1.476-2.691,3.109-2.743v-.7a.4.4,0,1,1,.785,0v.7c1.017.027,3.108.665,3.108,1.947a.784.784,0,0,1-.823.809c-.849,0-.838-1.4-2.284-1.423v2.482c1.725.366,3.252.875,3.252,2.889C15.5,19.412,14.188,20.3,12.243,20.418Z" transform="translate(-3.92 -7.842)" fill="#1d1d1d"/>
        </g>
      </g>
    </g>
    <rect id="Rectangle_4536" data-name="Rectangle 4536" width="26" height="26" transform="translate(882 336)" fill="none"/>
  </g>
</svg>
